<?xml version="1.0" encoding="UTF-8" standalone="no"?>
<!-- Created with Inkscape (http://www.inkscape.org/) -->

<svg
   xmlns:dc="http://purl.org/dc/elements/1.1/"
   xmlns:cc="http://creativecommons.org/ns#"
   xmlns:rdf="http://www.w3.org/1999/02/22-rdf-syntax-ns#"
   xmlns:svg="http://www.w3.org/2000/svg"
   xmlns="http://www.w3.org/2000/svg"
   xmlns:sodipodi="http://sodipodi.sourceforge.net/DTD/sodipodi-0.dtd"
   xmlns:inkscape="http://www.inkscape.org/namespaces/inkscape"
   width="52.901787mm"
   height="20.63493mm"
   viewBox="0 0 52.901787 20.63493"
   version="1.1"
   id="svg8"
   inkscape:version="0.92.2 5c3e80d, 2017-08-06"
   sodipodi:docname="logo.svg">
  <defs
     id="defs2" />
  <sodipodi:namedview
     id="base"
     pagecolor="#ffffff"
     bordercolor="#666666"
     borderopacity="1.0"
     inkscape:pageopacity="0.0"
     inkscape:pageshadow="2"
     inkscape:zoom="0.49497475"
     inkscape:cx="-119.18061"
     inkscape:cy="63.18558"
     inkscape:document-units="mm"
     inkscape:current-layer="layer1"
     showgrid="false"
     inkscape:window-width="1366"
     inkscape:window-height="708"
     inkscape:window-x="0"
     inkscape:window-y="34"
     inkscape:window-maximized="1" />
  <metadata
     id="metadata5">
    <rdf:RDF>
      <cc:Work
         rdf:about="">
        <dc:format>image/svg+xml</dc:format>
        <dc:type
           rdf:resource="http://purl.org/dc/dcmitype/StillImage" />
        <dc:title></dc:title>
      </cc:Work>
    </rdf:RDF>
  </metadata>
  <g
     inkscape:label="Layer 1"
     inkscape:groupmode="layer"
     id="layer1"
     transform="translate(-56.318454,-89.377684)">
    <path
       style="fill:#1f1a82;stroke-width:0.26458335"
       d="m 61.345537,109.33508 c -1.989192,-0.9226 -3.077805,-2.0308 -4.132869,-4.20722 -0.777727,-1.60433 -0.894214,-2.10885 -0.894214,-3.87301 0,-2.309839 0.923741,-5.912762 2.043375,-7.969899 0.763016,-1.401912 1.645389,-2.166498 3.702517,-3.208271 l 1.380267,-0.698996 h 13.44867 13.44867 l -0.535958,2.645833 -0.535961,2.645834 h -2.320582 c -1.27632,0 -2.322901,0.02977 -2.32574,0.06615 -0.0028,0.03638 -0.458994,2.298568 -1.013685,5.027083 L 82.6015,104.72352 h 8.956859 8.956861 l 0.30089,-0.66038 c 0.24861,-0.54566 0.21752,-0.7525 -0.17897,-1.19063 -0.40282,-0.44511 -0.814475,-0.53024 -2.564024,-0.53024 -3.253963,0 -5.343287,-1.14545 -6.458673,-3.540909 -1.491054,-3.202256 -0.345773,-6.929096 2.658991,-8.652595 l 1.335646,-0.766112 6.81302,-0.0025 c 6.3189,-0.0023 6.81192,0.0311 6.79786,0.460538 -0.008,0.254661 -0.22512,1.415521 -0.48172,2.579687 l -0.46655,2.116667 -5.66985,0.132292 c -3.118413,0.07276 -5.818671,0.228615 -6.000572,0.346344 -0.181902,0.117729 -0.328907,0.415385 -0.326679,0.661458 0.0092,1.015647 0.448696,1.22278 2.988588,1.408505 2.720783,0.198951 4.051443,0.704092 5.245383,1.991233 3.10917,3.351852 2.04386,8.493202 -2.1526,10.388842 -1.1424,0.51604 -1.69707,0.53807 -13.692193,0.54364 -7.004089,0.003 -12.501562,-0.0963 -12.501562,-0.22649 0,-0.12776 0.654843,-3.45468 1.455208,-7.39314 0.800364,-3.93847 1.455208,-7.286749 1.455208,-7.440622 0,-0.189987 -2.381312,-0.27977 -7.42036,-0.27977 -7.401897,0 -7.421882,0.0015 -8.032227,0.611867 -1.64647,1.64647 -2.473941,6.658375 -1.348455,8.167435 0.291042,0.39024 0.80266,0.83672 1.136929,0.99219 0.370192,0.17218 2.774797,0.28267 6.151562,0.28267 4.262275,0 5.542231,0.0764 5.537008,0.33073 -0.0037,0.1819 -0.227695,1.30732 -0.497686,2.50093 -0.269991,1.19361 -0.425685,2.2354 -0.345985,2.3151 0.0797,0.0797 -2.464545,0.14375 -5.653876,0.14233 -5.656881,-0.002 -5.834396,-0.0191 -7.253994,-0.67752 z"
       id="path826"
       inkscape:connector-curvature="0" />
  </g>
</svg>
